<svg
   xmlns:dc="http://purl.org/dc/elements/1.1/"
   xmlns:cc="http://creativecommons.org/ns#"
   xmlns:rdf="http://www.w3.org/1999/02/22-rdf-syntax-ns#"
   xmlns:svg="http://www.w3.org/2000/svg"
   xmlns="http://www.w3.org/2000/svg"
   xmlns:xlink="http://www.w3.org/1999/xlink"
   xmlns:sodipodi="http://sodipodi.sourceforge.net/DTD/sodipodi-0.dtd"
   xmlns:inkscape="http://www.inkscape.org/namespaces/inkscape"
   width="37"
   height="37"
   viewBox="0 0 9.7895834 9.7895837"
   version="1.1"
   id="svg3222"
   inkscape:version="0.92.2 (5c3e80d, 2017-08-06)"
   sodipodi:docname="Logo simple white.svg">
  <defs
     id="defs3216">
    <linearGradient
       inkscape:collect="always"
       id="linearGradient3786">
      <stop
         style="stop-color:#c86b98;stop-opacity:1"
         offset="0"
         id="stop3782" />
      <stop
         id="stop3790"
         offset="0.5"
         style="stop-color:#632b6c;stop-opacity:1" />
      <stop
         style="stop-color:#280f36;stop-opacity:1"
         offset="1"
         id="stop3784" />
    </linearGradient>
    <linearGradient
       inkscape:collect="always"
       xlink:href="#linearGradient3786"
       id="linearGradient3788"
       x1="-268.90598"
       y1="-257.61447"
       x2="-268.90598"
       y2="-191.5"
       gradientUnits="userSpaceOnUse"
       gradientTransform="matrix(0.07000449,0,0,0.07000449,26.985059,304.61154)" />
  </defs>
  <sodipodi:namedview
     id="base"
     pagecolor="#ffffff"
     bordercolor="#666666"
     borderopacity="1.0"
     inkscape:pageopacity="0.0"
     inkscape:pageshadow="2"
     inkscape:zoom="17.15148"
     inkscape:cx="19.297521"
     inkscape:cy="15.204453"
     inkscape:document-units="mm"
     inkscape:current-layer="layer1"
     showgrid="false"
     inkscape:window-width="1920"
     inkscape:window-height="1017"
     inkscape:window-x="-8"
     inkscape:window-y="-8"
     inkscape:window-maximized="1"
     units="px" />
  <metadata
     id="metadata3219">
    <rdf:RDF>
      <cc:Work
         rdf:about="">
        <dc:format>image/svg+xml</dc:format>
        <dc:type
           rdf:resource="http://purl.org/dc/dcmitype/StillImage" />
        <dc:title></dc:title>
      </cc:Work>
    </rdf:RDF>
  </metadata>
  <g
     inkscape:label="Layer 1"
     inkscape:groupmode="layer"
     id="layer1"
     transform="translate(0,-287.2104)">
    <circle
       style="opacity:1;fill:#ffffff;fill-opacity:1;stroke:none;stroke-width:0.12756374;stroke-linecap:round;stroke-miterlimit:4;stroke-dasharray:none;stroke-opacity:1"
       id="path3794"
       cx="4.8947916"
       cy="292.10519"
       r="4.8947916"
       inkscape:export-xdpi="392.14001"
       inkscape:export-ydpi="392.14001" />
    <g
       id="g3798"
       transform="translate(-5.4380871,5.5369528)"
       inkscape:export-xdpi="392.14001"
       inkscape:export-ydpi="392.14001">
      <path
         inkscape:connector-curvature="0"
         id="rect3735"
         d="m 10.332879,281.93802 a 4.6302176,4.6302176 0 0 0 -4.6302772,4.63014 h 9.2605542 a 4.6302176,4.6302176 0 0 0 -4.630277,-4.63014 z m 1.37e-4,0.16722 0.07274,0.86234 0.01819,0.21548 0.01832,0.21562 0.01819,0.21562 c 0,0 0.004,0.13644 0.05127,0.18363 0.04726,0.0471 0.182668,0.0495 0.182668,0.0495 l 0.215619,0.0181 0.215209,0.018 0.21562,0.0181 0.86234,0.0727 -0.86234,0.073 -0.21562,0.0182 -0.215209,0.0181 -0.215619,0.0179 c 0,0 -0.135421,0.005 -0.182668,0.0497 -0.04726,0.0472 -0.05127,0.1839 -0.05127,0.1839 l -0.01819,0.21562 -0.01832,0.2152 -0.01819,0.21562 -0.07274,0.86234 -0.07315,-0.86234 -0.01805,-0.21562 -0.01846,-0.2152 -0.01805,-0.21562 c 0,0 -0.0031,-0.13672 -0.05004,-0.1839 -0.04727,-0.047 -0.1838979,-0.0497 -0.1838979,-0.0497 l -0.2156195,-0.0179 -0.2152091,-0.0181 -0.2156188,-0.018 -0.8623406,-0.0731 0.8623406,-0.0727 0.2156188,-0.0179 0.2152091,-0.0181 0.2156195,-0.0182 c 0,0 0.1366439,-0.005 0.1838979,-0.0495 0.04726,-0.0472 0.05004,-0.18363 0.05004,-0.18363 l 0.01805,-0.21562 0.01846,-0.21562 0.01805,-0.21548 z"
         style="opacity:1;fill:#fe9c7f;fill-opacity:1;stroke:none;stroke-width:0.13859323;stroke-linecap:round;stroke-miterlimit:4;stroke-dasharray:none;stroke-opacity:1" />
      <path
         inkscape:connector-curvature="0"
         id="circle3672"
         d="m 10.262191,286.56816 -0.3014839,0.26457 H 5.7158642 a 4.6302176,4.6302176 0 0 0 0.019963,0.26457 h 3.9235333 l -0.3014842,0.26457 H 5.7757522 a 4.6302176,4.6302176 0 0 0 0.054556,0.2647 h 3.225949 l -0.301347,0.26456 h -2.857196 a 4.6302176,4.6302176 0 0 0 0.091608,0.26458 h 2.4641032 l -0.3014843,0.26456 H 6.091731 a 4.6302176,4.6302176 0 0 0 0.1277036,0.26457 h 1.6311591 l -0.3014842,0.26457 h -1.180779 a 4.6302176,4.6302176 0 0 0 0.1669451,0.26457 h 0.7123503 l -0.3013476,0.26456 H 6.7362645 a 4.6302176,4.6302176 0 0 0 3.5966165,1.7199 4.6302176,4.6302176 0 0 0 3.598806,-1.7199 h -0.353715 l -0.301347,-0.26456 h 0.849488 a 4.6302176,4.6302176 0 0 0 0.172139,-0.26457 H 12.97514 l -0.301347,-0.26457 h 1.776364 a 4.6302176,4.6302176 0 0 0 0.120321,-0.26457 h -2.198169 l -0.301485,-0.26456 h 2.607668 a 4.6302176,4.6302176 0 0 0 0.08791,-0.26458 h -2.996929 l -0.301484,-0.26456 h 3.366914 a 4.6302176,4.6302176 0 0 0 0.05934,-0.2647 H 11.16651 l -0.301485,-0.26457 h 4.062038 a 4.6302176,4.6302176 0 0 0 0.02666,-0.26457 h -4.390047 z"
         style="opacity:1;fill:url(#linearGradient3788);fill-opacity:1;stroke:none;stroke-width:0.0945371;stroke-linecap:round;stroke-miterlimit:4;stroke-dasharray:none;stroke-opacity:1" />
    </g>
  </g>
</svg>
